HIERARCHY
ROOT Pelvis
{
	OFFSET 0.000000 0.000000 0.000000
	CHANNELS 6 Xposition Yposition Zposition Xrotation Yrotation Zrotation
	JOINT LeftUpLeg_virtual
	{
		OFFSET 0.000000 0.000000 0.000000
		CHANNELS 3 Xrotation Yrotation Zrotation
		JOINT LeftUpLeg
		{
			OFFSET 18.735201 -5.666702 -4.541200
			CHANNELS 3 Xrotation Yrotation Zrotation
			JOINT LeftLeg
			{
				OFFSET -0.021200 -31.938179 0.493100
				CHANNELS 3 Xrotation Yrotation Zrotation
				JOINT LeftFoot
				{
					OFFSET 0.021200 -31.938179 -4.336299
					CHANNELS 3 Xrotation Yrotation Zrotation
					JOINT LeftToeBase
					{
						OFFSET 0.943001 -26.722000 15.023500
						CHANNELS 3 Xrotation Yrotation Zrotation
						End Site
						{
							OFFSET 0 0 0
						}
					}
				}
			}
		}
	}
	JOINT RightUpLeg_virtual
	{
		OFFSET 0.000000 0.000000 0.000000
		CHANNELS 3 Xrotation Yrotation Zrotation
		JOINT RightUpLeg
		{
			OFFSET -18.735201 -5.666702 -4.541200
			CHANNELS 3 Xrotation Yrotation Zrotation
			JOINT RightLeg
			{
				OFFSET 0.018946 -31.938133 0.493100
				CHANNELS 3 Xrotation Yrotation Zrotation
				JOINT RightFoot
				{
					OFFSET -0.018946 -31.938126 -4.336299
					CHANNELS 3 Xrotation Yrotation Zrotation
					JOINT RightToeBase
					{
						OFFSET -0.943001 -26.722004 15.023500
						CHANNELS 3 Xrotation Yrotation Zrotation
						End Site
						{
							OFFSET 0 0 0
						}
					}
				}
			}
		}
	}
	JOINT Hips_virtual
	{
		OFFSET 0.000000 0.000000 0.000000
		CHANNELS 3 Xrotation Yrotation Zrotation
		JOINT Hips
		{
			OFFSET -0.000000 -0.000000 -0.000000
			CHANNELS 3 Xrotation Yrotation Zrotation
			JOINT Spine
			{
				OFFSET 0.000000 10.199997 -0.299500
				CHANNELS 3 Xrotation Yrotation Zrotation
				JOINT Spine1
				{
					OFFSET 0.000000 11.900002 -1.516600
					CHANNELS 3 Xrotation Yrotation Zrotation
					JOINT Spine2
					{
						OFFSET 0.000000 13.600006 -2.842500
						CHANNELS 3 Xrotation Yrotation Zrotation
						JOINT Neck_virtual
						{
							OFFSET 0.000000 0.000000 0.000000
							CHANNELS 3 Xrotation Yrotation Zrotation
							JOINT Neck
							{
								OFFSET 0.000000 9.624100 -2.890100
								CHANNELS 3 Xrotation Yrotation Zrotation
								JOINT Head
								{
									OFFSET 0.000000 14.068802 -1.351900
									CHANNELS 3 Xrotation Yrotation Zrotation
									End Site
									{
										OFFSET 0 0 0
									}
								}
							}
						}
						JOINT LeftShoulder_virtual
						{
							OFFSET 0.000000 0.000000 0.000000
							CHANNELS 3 Xrotation Yrotation Zrotation
							JOINT LeftShoulder
							{
								OFFSET 15.263000 10.923401 -0.547700
								CHANNELS 3 Xrotation Yrotation Zrotation
								JOINT LeftArm
								{
									OFFSET 25.438599 -2.830597 -13.032500
									CHANNELS 3 Xrotation Yrotation Zrotation
									JOINT LeftForeArm
									{
										OFFSET 29.960503 0.000000 0.000000
										CHANNELS 3 Xrotation Yrotation Zrotation
										JOINT LeftHand
										{
											OFFSET 27.849251 0.000000 0.000000
											CHANNELS 3 Xrotation Yrotation Zrotation
											End Site
											{
												OFFSET 0 0 0
											}
										}
									}
								}
							}
						}
						JOINT RightShoulder_virtual
						{
							OFFSET 0.000000 0.000000 0.000000
							CHANNELS 3 Xrotation Yrotation Zrotation
							JOINT RightShoulder
							{
								OFFSET -15.263000 10.923401 -0.547700
								CHANNELS 3 Xrotation Yrotation Zrotation
								JOINT RightArm
								{
									OFFSET -25.438599 -2.830597 -13.032500
									CHANNELS 3 Xrotation Yrotation Zrotation
									JOINT RightForeArm
									{
										OFFSET -29.960503 0.000000 0.000000
										CHANNELS 3 Xrotation Yrotation Zrotation
										JOINT RightHand
										{
											OFFSET -27.849251 0.000000 0.000000
											CHANNELS 3 Xrotation Yrotation Zrotation
											End Site
											{
												OFFSET 0 0 0
											}
										}
									}
								}
							}
						}
					}
				}
			}
		}
	}
}
MOTION
Frames: 9
Frame Time: 0.03333333
-3.743199 75.337402 2.151250 0.000000 0.000000 0.000000 -4.314101 -74.812182 -3.407494 -41.533889 6.985798 56.855229 44.152737 -5.073538 -8.334148 6.798535 -0.976910 -27.676837 0.000000 0.000000 0.000000 -4.314101 -74.812182 -3.407494 -42.499373 6.828423 -31.832254 66.910712 13.210820 -6.931397 -19.830028 -7.596990 28.259332 0.000000 0.000000 0.000000 -4.314101 -74.812182 -3.407494 0.000000 0.000000 0.000000 2.953925 -0.380318 -1.451622 5.893830 -0.904742 -3.151096 0.000000 0.000000 0.000000 5.893816 -0.904596 -3.151109 -0.224628 4.882790 1.375119 0.000000 0.000000 0.000000 5.893816 -0.904596 -3.151109 0.279789 -7.010245 -19.556597 -39.504062 -20.309100 -2.427264 -5.614202 -32.071566 -2.800581 0.000000 0.000000 0.000000 5.893816 -0.904596 -3.151109 0.636236 13.855925 9.110356 35.455266 67.114422 -18.850897 0.649740 83.885317 -11.767032 0.000000 0.000000 0.000000 
-3.727270 75.530060 2.119277 0.000000 0.000000 0.000000 -5.314373 -75.245728 -4.413008 -40.524834 7.207518 56.708312 43.769536 -4.348226 -8.210781 6.776926 -0.960553 -28.044975 0.000000 0.000000 0.000000 -5.314373 -75.245728 -4.413008 -42.423487 6.761142 -31.599512 66.435529 13.426694 -6.897167 -19.431046 -7.431126 28.062689 0.000000 0.000000 0.000000 -5.314373 -75.245728 -4.413008 0.000000 -0.000001 0.000000 2.901261 -0.340271 -1.407387 5.790269 -0.823363 -3.057949 0.000000 0.000000 0.000000 5.790279 -0.823168 -3.058012 -0.246226 4.902097 1.372437 0.000000 0.000000 0.000000 5.790279 -0.823168 -3.058012 0.268780 -7.020029 -19.607416 -39.486888 -20.023365 -2.512434 -5.275125 -32.657142 -2.924885 0.000000 0.000000 0.000000 5.790279 -0.823168 -3.058012 0.634731 13.830914 9.149993 35.145083 66.734828 -18.517005 1.797525 83.923976 -12.613829 0.000000 0.000000 0.000000 
-3.671300 76.031578 1.980385 0.000000 0.000000 0.000000 -8.635313 -76.542460 -7.751770 -38.252024 8.372848 56.811003 42.549350 -3.007481 -7.975142 6.850623 -0.957446 -28.748505 0.000000 0.000000 0.000000 -8.635313 -76.542460 -7.751770 -42.337986 6.624960 -30.872943 65.233409 14.110845 -6.800654 -18.305400 -6.956432 27.443912 0.000000 0.000000 0.000000 -8.635313 -76.542460 -7.751770 0.000000 0.000000 0.000000 2.736059 -0.218857 -1.294506 5.463875 -0.576415 -2.823616 0.000000 0.000000 0.000000 5.463879 -0.576620 -2.823581 -0.302879 4.955952 1.365575 0.000000 0.000000 0.000000 5.463879 -0.576620 -2.823581 0.178883 -7.112253 -19.959753 -38.090029 -18.526661 -4.022177 -4.376984 -34.383671 -3.671988 0.000000 0.000000 0.000000 5.463879 -0.576620 -2.823581 0.618019 13.645863 9.451069 33.426621 66.007713 -15.519185 3.993469 82.618897 -14.043970 0.000000 0.000000 0.000000 
-3.587901 76.654396 1.767862 0.000000 0.000000 0.000000 -13.639047 -77.971131 -12.776793 -35.547388 9.954219 56.889670 40.753922 -1.422386 -7.713228 7.181147 -1.021932 -29.492251 0.000000 0.000000 0.000000 -13.639047 -77.971131 -12.776793 -42.051972 6.527528 -29.942914 63.547943 13.334290 -6.766537 -16.889680 -5.081265 27.365071 0.000000 0.000000 0.000000 -13.639047 -77.971131 -12.776793 0.000000 0.000000 0.000000 2.628814 -0.112772 -1.147415 5.251878 -0.370016 -2.520961 0.000000 0.000000 0.000000 5.251885 -0.369749 -2.520972 -0.386973 5.037738 1.355279 0.000000 0.000000 0.000000 5.251885 -0.369749 -2.520972 -0.007881 -7.332814 -20.527673 -35.072683 -16.294458 -6.885066 -3.084735 -37.890119 -4.806798 0.000000 0.000000 0.000000 5.251885 -0.369749 -2.520972 0.583429 13.311835 10.010964 29.395908 64.655677 -10.020296 5.849141 80.267461 -14.787389 0.000000 0.000000 0.000000 
-3.486961 77.368668 1.543609 0.000000 0.000000 0.000000 -19.597290 -79.031040 -18.751632 -32.902169 11.666115 56.649975 38.273443 -1.195519 -7.482120 7.859214 0.220634 -30.111989 0.000000 0.000000 0.000000 -19.597290 -79.031040 -18.751632 -41.285837 6.421076 -28.991059 61.581778 12.144992 -6.737932 -15.515260 -3.224219 27.439540 0.000000 0.000000 0.000000 -19.597290 -79.031040 -18.751632 0.000000 0.000000 0.000000 2.719959 -0.099981 -0.966323 5.435072 -0.364689 -2.147213 0.000000 0.000000 0.000000 5.435055 -0.364731 -2.147184 -0.488929 5.141164 1.342891 0.000000 0.000000 0.000000 5.435055 -0.364731 -2.147184 -0.300780 -7.717416 -21.169302 -30.464604 -14.324737 -10.587060 -1.501581 -43.437582 -6.010385 0.000000 0.000000 0.000000 5.435055 -0.364731 -2.147184 0.540602 12.870446 10.783001 24.293545 62.555722 -2.535408 7.088311 77.228280 -14.683636 0.000000 0.000000 0.000000 
-3.361067 78.157494 1.383629 0.000000 0.000000 0.000000 -25.352711 -79.232592 -24.516491 -30.703633 13.211492 56.118586 35.477850 -0.985585 -7.172131 8.957166 0.950357 -30.367065 0.000000 0.000000 0.000000 -25.352711 -79.232592 -24.516491 -39.609776 6.230858 -28.235671 59.455752 11.094818 -6.682229 -14.415743 -2.314631 27.578327 0.000000 0.000000 0.000000 -25.352711 -79.232592 -24.516491 0.000000 0.000000 0.000000 2.919484 -0.197984 -0.757958 5.831683 -0.560733 -1.716625 0.000000 0.000000 0.000000 5.831683 -0.560688 -1.716636 -0.599693 5.259910 1.329628 0.000000 0.000000 0.000000 5.831683 -0.560688 -1.716636 -0.709166 -8.303025 -21.744076 -24.571814 -14.103281 -14.471291 0.320398 -50.243619 -6.824109 0.000000 0.000000 0.000000 5.831683 -0.560688 -1.716636 0.495814 12.362361 11.721390 19.366819 59.530590 4.934764 7.368395 72.767736 -13.528137 0.000000 0.000000 0.000000 
-3.248254 78.951622 1.434840 0.000000 0.000000 0.000000 -28.061083 -78.553814 -27.253643 -29.849262 13.597187 55.627581 33.863579 2.616831 -6.676863 10.787297 -3.366831 -29.222688 0.000000 0.000000 0.000000 -28.061083 -78.553814 -27.253643 -37.037541 6.024548 -27.808594 57.192131 10.712210 -6.558975 -13.651591 -3.112264 27.807488 0.000000 0.000000 0.000000 -28.061083 -78.553814 -27.253643 0.000000 0.000000 0.000000 3.143209 -0.438844 -0.525494 6.274742 -1.015801 -1.237422 0.000000 0.000000 0.000000 6.274736 -1.016032 -1.237387 -0.710677 5.387500 1.316722 0.000000 0.000000 0.000000 6.274736 -1.016032 -1.237387 -1.237958 -9.130106 -22.113185 -18.131092 -16.983458 -17.594017 2.276122 -57.117918 -6.833745 0.000000 0.000000 0.000000 6.274736 -1.016032 -1.237387 0.452590 11.827379 12.780977 15.018799 55.768088 11.834437 7.313441 67.627725 -11.518097 0.000000 0.000000 0.000000 
-3.140668 79.562790 1.776321 0.000000 0.000000 0.000000 -25.133469 -77.350649 -24.362388 -30.252363 13.063080 54.711803 32.235525 2.783878 -6.457051 13.990857 -3.825263 -29.220331 0.000000 0.000000 0.000000 -25.133469 -77.350649 -24.362388 -34.297703 6.159258 -27.751615 54.878890 9.562950 -6.470245 -13.182718 -4.442307 28.786778 0.000000 0.000000 0.000000 -25.133469 -77.350649 -24.362388 0.000000 0.000001 0.000000 3.227004 -0.749923 -0.251285 6.440316 -1.597138 -0.737858 0.000000 0.000000 0.000000 6.440338 -1.597115 -0.737857 -0.812609 5.517548 1.306009 0.000000 0.000000 0.000000 6.440338 -1.597115 -0.737857 -1.788796 -10.261850 -21.614984 -12.374400 -25.966036 -19.095042 3.799671 -63.542302 -4.138510 0.000000 0.000000 0.000000 6.440338 -1.597115 -0.737857 0.410386 11.305473 13.916958 11.357510 51.489087 17.816706 7.074200 62.065471 -9.068819 0.000000 0.000000 0.000000 
-2.957108 79.948967 2.484869 0.000000 0.000000 0.000000 -20.904670 -75.601055 -20.213182 -31.269094 11.654180 54.741258 31.064991 1.519091 -6.468518 17.837230 -4.016745 -32.673562 0.000000 0.000000 0.000000 -20.904670 -75.601055 -20.213182 -31.138863 6.462171 -28.066072 52.530859 8.577811 -6.351598 -12.778790 -6.679526 30.183405 0.000000 0.000000 0.000000 -20.904670 -75.601055 -20.213182 0.000000 0.000001 0.000000 3.363391 -1.156072 0.066997 6.711670 -2.358839 -0.226280 0.000000 0.000000 0.000000 6.711696 -2.358922 -0.226262 -0.896839 5.643835 1.299442 0.000000 0.000000 0.000000 6.711696 -2.358922 -0.226262 -1.956087 -11.788691 -18.531550 -8.445234 -40.943098 -16.373615 5.698888 -71.137151 0.901376 0.000000 0.000000 0.000000 6.711696 -2.358922 -0.226262 0.363955 10.835750 15.085345 8.439636 46.984895 22.636241 6.729790 56.420948 -6.377700 0.000000 0.000000 0.000000 
